<?xml version="1.0" encoding="utf-8"?>
<!-- Generator: Adobe Illustrator 23.0.4, SVG Export Plug-In . SVG Version: 6.00 Build 0)  -->
<svg version="1.1" xmlns="http://www.w3.org/2000/svg" xmlns:xlink="http://www.w3.org/1999/xlink" x="0px" y="0px"
	 viewBox="0 0 676 676" style="enable-background:new 0 0 676 676;" xml:space="preserve">
<style type="text/css">
	.st0{display:none;}
	.st1{fill:#8A8AFF;enable-background:new    ;}
	.st2{opacity:0.2;enable-background:new    ;}
	.st3{fill:#2F2E41;}
	.st4{fill:#F1C27D;}
	.st5{fill:#DBB90F;}
</style>
<g id="af854e00-ff52-4b34-bc30-9a0c0757a839">
	<title>female_avatar</title>
	<path class="st0" d="M676,338c0,120.3-62.9,226-157.6,285.9c-8.8,5.6-18,10.8-27.3,15.5c-2.1,1.1-4.2,2.1-6.4,3.2
		c-1.8,0.9-3.6,1.7-5.3,2.5c-18.6,8.6-37.9,15.4-57.8,20.5c-1.3,0.3-2.6,0.7-3.9,1c-1,0.2-1.9,0.5-2.9,0.7c-0.1,0-0.2,0.1-0.4,0.1
		c-2,0.5-4,0.9-6,1.3c-1.1,0.2-2.3,0.5-3.4,0.7c-0.7,0.2-1.4,0.3-2.1,0.4c-0.9,0.2-1.7,0.3-2.6,0.5c-0.5,0.1-1,0.2-1.5,0.3
		c-1.1,0.2-2.2,0.4-3.3,0.6c-1.9,0.3-3.7,0.6-5.6,0.9c-1.4,0.2-2.7,0.4-4.1,0.6c-1.6,0.2-3.2,0.4-4.8,0.6c-0.4,0.1-0.9,0.1-1.3,0.2
		c-0.6,0.1-1.1,0.1-1.7,0.2c-1.7,0.2-3.5,0.4-5.2,0.6c-1.1,0.1-2.3,0.2-3.4,0.3c-1.5,0.1-2.9,0.3-4.4,0.4c-1.8,0.1-3.6,0.3-5.4,0.4
		c-1.2,0.1-2.3,0.1-3.5,0.2c-3,0.2-6,0.3-9,0.3c-1.5,0-3,0.1-4.5,0.1h0c-1.5,0-3,0-4.5,0C151.4,676.1,0.1,524.9,0,338.3
		c0-0.1,0-0.2,0-0.3C0,151.3,151.3,0,338,0S676,151.3,676,338z"/>
	<path class="st1" d="M552.1,206.2c-17.4,12.7-32.5,29.8-45.8,49.9c-37.7,57.2-60,139-73.2,215.5c-3.4,19.5-6.1,38.7-8.4,57.1
		c-7.8,63-9.8,116-10.4,138.7c-2,0.5-4,0.9-6,1.3c0.3-17.3,1.6-54.8,6-101.6c0.6-6,1.2-12.2,1.9-18.6c0.8-7.1,1.6-14.4,2.5-21.8
		c1.9-15.3,4.1-31.3,6.8-47.4c0.4-2.5,0.8-5.1,1.3-7.6c16.7-97.8,42.2-172,76.3-221.9c13.8-20.1,28.9-36.3,45.4-48.4L552.1,206.2z"
		/>
	<path class="st1" d="M548.4,472.5c-26,19.1-40.6,61.1-48.7,102.1c-4.1,21.4-7,43-8.6,64.8c-2.1,1.1-4.2,2.1-6.4,3.2
		c1.6-24.8,4.9-49.4,9.9-73.7c8.6-40.6,23.7-81.7,50.3-101.2L548.4,472.5z"/>
	<circle class="st1" cx="585.7" cy="176" r="30.1"/>
	<circle class="st1" cx="576" cy="435" r="30.1"/>
	<path class="st2" d="M466.3,226.5c6.4,36-7.7,68.6-7.7,68.6s-24.4-25.8-30.8-61.8s7.7-68.6,7.7-68.6S459.9,190.5,466.3,226.5z"/>
	<path class="st1" d="M566.3,312c-34.3,12.6-68.8,4.5-68.8,4.5s21.2-28.4,55.5-41s68.8-4.5,68.8-4.5S600.6,299.4,566.3,312z"/>
	<path class="st1" d="M572.1,541.3c-24.1,8.8-48.3,3.1-48.3,3.1s14.8-20,38.9-28.8s48.3-3.1,48.3-3.1S596.2,532.5,572.1,541.3z"/>
	<path class="st3" d="M247.3,590.8c-130.2-4.2-78.1-119-74.1-165.7c5.3-62.1-38.4-165.5,8.6-244.9c48.9-82.6,145.6-86.4,145.6-86.4
		S427.6,80.3,488,206.1c26.4,50-9.9,101.5,9.4,158.7c30.5,90.5,42.6,230.1-36.9,248l-1-89.6l-0.6-52.7c1.5,19.2,1.4,71-11.3,84.7"/>
	<circle class="st4" cx="336.9" cy="282.2" r="123.6"/>
	<path class="st4" d="M396.5,350.8c0,0-50.4,146.5,9.2,187.7s-96.2,68.7-137.4,41.2S195,506.5,195,506.5s105.3-105.3,82.4-164.8
		L396.5,350.8z"/>
	<path class="st5" d="M488,570.6l-8.7,74.5c-18.6,8.6-37.9,15.4-57.8,20.5c-1.3,0.3-2.6,0.7-3.9,1c-1,0.2-1.9,0.5-2.9,0.7
		c-0.1,0-0.2,0.1-0.4,0.1c-2,0.5-4,0.9-6,1.3c-1.1,0.2-2.3,0.5-3.4,0.7c-0.7,0.2-1.4,0.3-2.1,0.4c-0.9,0.2-1.7,0.3-2.6,0.5
		c-0.5,0.1-1,0.2-1.5,0.3c-1.1,0.2-2.2,0.4-3.3,0.6c-1.9,0.3-3.7,0.6-5.6,0.9c-1.4,0.2-2.7,0.4-4.1,0.6c-1.6,0.2-3.2,0.4-4.8,0.6
		c-0.4,0.1-0.9,0.1-1.3,0.2c-0.6,0.1-1.1,0.1-1.7,0.2c-1.7,0.2-3.5,0.4-5.2,0.6c-1.1,0.1-2.3,0.2-3.4,0.3c-1.5,0.1-2.9,0.3-4.4,0.4
		c-1.8,0.1-3.6,0.3-5.4,0.4c-1.2,0.1-2.3,0.1-3.5,0.2c-3,0.2-6,0.3-9,0.3c-1.5,0-3,0.1-4.5,0.1h0c-1.5,0-3,0-4.5,0
		c-122.6,0-235.5-66.4-295.3-173.4c15.1-10.3,30.8-19.7,47-28.1c5.2-2.6,12.2-4.2,20.2-5c18.1-1.9,41.5,0.2,61.9,4.1
		c18.5,3.5,34.5,8.4,41.6,13.1c18.3,12.1,91.6,52,91.6,52s64.1,9.2,90-9.9c0,0,0,0,0,0c6.1-4.5,14.5-4.5,23.8-2c2,0.5,4,1.2,6,2
		c5.7,2.2,11.2,4.8,16.5,7.8c0.1,0.1,0.2,0.1,0.4,0.2c1.9,1,3.7,2.2,5.6,3.3C468.9,553.2,488,570.6,488,570.6z"/>
	<path class="st5" d="M118.2,594.8c-3-55-6.3-100-8.4-125.4c18.1-1.9,41.5,0.2,61.9,4.1c16.6,33.2,53.9,109.7,88.2,193.4
		C207.6,654.5,159,629.8,118.2,594.8z"/>
	<path class="st3" d="M440,536.3l1.2,0.6C441.1,538.2,440.8,539,440,536.3z"/>
	<path class="st3" d="M441.6,536.7c0,0.1,0,0.3,0,0.4l-0.4-0.2c0-0.1,0-0.3,0-0.4C441.3,534.7,441.2,532.7,441.6,536.7z"/>
	<path class="st5" d="M518.4,623.9c-8.8,5.6-18,10.8-27.3,15.5c-2.1,1.1-4.2,2.1-6.4,3.2c-1.8,0.9-3.6,1.7-5.3,2.5
		c-18.6,8.6-37.9,15.4-57.8,20.5c14.4-46.5,23.5-92.5,20.1-128.5l5.5,2.8l26.7,13.7c7.7,3.9,14.7,9.1,20.7,15.2
		c1.8,1.8,3.6,3.7,5.2,5.7c11.3,13.7,17.8,30.7,18.7,48.4C518.4,623.3,518.4,623.6,518.4,623.9z"/>
	<path class="st3" d="M320,154.6c0,0,3.7,8.4,5.2,17.8c1.8,11.3,2.9,11.6-3,17.9c-3.4,3.7-30.9,20.6-33.7,22.3
		c-2.8,1.7-16.6,9.3-21.5,12.7s-20.4,15.2-24.5,19.5c-4.1,4.3-8.5,10.7-10.2,15.8c-1.7,5.2-3.5,13.6-4.2,20
		c-0.7,6.5-0.5,12.7-0.4,15.9c0.1,3.1,0.8,12.1,1.2,14.1c0.4,1.9,1.9,9.8,1.9,11c0,1.2,0.1,1.6-0.1,3c-0.2,1.4-1.2,7.4-1.9,11.3
		c-0.6,3.9-1.9,6.3-1.8,7.8s-30.9-21.4-32-36.1s-8-50.9,0-68.7c8-17.8,17.6-51.1,35-62.9s37.8-26.2,50-27.5
		c12.2-1.3,32,1.8,34.4,3.2C316.7,153.1,320,154.6,320,154.6z"/>
	<path class="st3" d="M335.1,148.2c0,0-1.9,9.2,0,16.6s7.7,16.1,18.1,20.9c23.6,11,54.3,18.1,65.8,33.5c16.1,21.5,21.1,38.2,28,54.7
		c8.9,21.2-3.3,61.5,3.5,73.1c13.4,23,29.7-15.3,29.7-15.3s6.7-59.7-3.6-82.5s-36.8-64.1-50.5-77.1c-14.3-13.6-78.2-25.2-82.3-26.2
		C339.8,144.9,335.1,148.2,335.1,148.2z"/>
</g>
<g id="Layer_2">
	<path class="st3" d="M333.1,145.9c0,0,4.9,15.4,4.9,24.9s2.3,24-9.4,32.9c-11.7,8.9-26.8,14.5-40.7,23.4
		c-13.9,8.9-31.2,23.7-38.5,32.4c-11.3,13.4-13.4,28.5-14.5,34.3c-2.9,15.4,0.3,19.2,0,25.3c-0.1,2.9-3.8,7.4-3.8,7.4
		s1.2-2.7,1.1-4.7c-0.1-2.6-3.7-18.2-4-26.6c-0.3-13,3.9-33.6,10.1-41.4c5.1-6.4,20.9-23.5,34.8-30.6s36.8-22.3,40.4-25.5
		c3.6-3.2,13.3-9.4,13.3-14.9c0-5.5-4.2-25.5-7.8-28.1C315.4,152.2,333.1,145.9,333.1,145.9z"/>
</g>
</svg>
